<svg aria-hidden="true" style="position: absolute; width: 0; height: 0; overflow: hidden;" version="1.1" xmlns="http://www.w3.org/2000/svg" xmlns:xlink="http://www.w3.org/1999/xlink">
<defs>
<symbol id="icon-shopping-cart" viewBox="0 0 32 32">
<path stroke-linejoin="round" stroke-linecap="round" stroke-miterlimit="4" stroke-width="2.6667" d="M12 29.333c0.736 0 1.333-0.597 1.333-1.333s-0.597-1.333-1.333-1.333c-0.736 0-1.333 0.597-1.333 1.333s0.597 1.333 1.333 1.333z"></path>
<path stroke-linejoin="round" stroke-linecap="round" stroke-miterlimit="4" stroke-width="2.6667" d="M26.667 29.333c0.736 0 1.333-0.597 1.333-1.333s-0.597-1.333-1.333-1.333c-0.736 0-1.333 0.597-1.333 1.333s0.597 1.333 1.333 1.333z"></path>
<path stroke-linejoin="round" stroke-linecap="round" stroke-miterlimit="4" stroke-width="2.4" d="M1.333 1.333h5.333l3.573 17.853c0.122 0.614 0.456 1.165 0.943 1.558s1.098 0.601 1.723 0.589h12.96c0.626 0.012 1.236-0.197 1.723-0.589s0.821-0.944 0.943-1.558l2.133-11.187h-22.667"></path>
</symbol>
<symbol id="icon-hamburger" viewBox="0 0 32 32">
<path stroke-linejoin="round" stroke-linecap="round" stroke-miterlimit="4" stroke-width="2" d="M28 13.333h-24"></path>
<path stroke-linejoin="round" stroke-linecap="round" stroke-miterlimit="4" stroke-width="2" d="M28 8h-24"></path>
<path stroke-linejoin="round" stroke-linecap="round" stroke-miterlimit="4" stroke-width="2" d="M28 18.667h-24"></path>
<path stroke-linejoin="round" stroke-linecap="round" stroke-miterlimit="4" stroke-width="2" d="M28 24h-24"></path>
</symbol>
<symbol id="icon-x" viewBox="0 0 32 32">
<path stroke-linejoin="round" stroke-linecap="round" stroke-miterlimit="4" stroke-width="2.6667" d="M24 8l-16 16"></path>
<path stroke-linejoin="round" stroke-linecap="round" stroke-miterlimit="4" stroke-width="2.6667" d="M8 8l16 16"></path>
</symbol>
<symbol id="icon-star" viewBox="0 0 32 32">
<path  d="M15.41 1.118c0.25-0.474 0.929-0.474 1.179 0l4.148 7.862c0.096 0.183 0.272 0.311 0.476 0.346l8.759 1.515c0.528 0.091 0.738 0.737 0.364 1.122l-6.195 6.374c-0.144 0.148-0.211 0.355-0.182 0.559l1.265 8.798c0.076 0.531-0.473 0.93-0.954 0.693l-7.977-3.922c-0.185-0.091-0.403-0.091-0.588 0l-7.977 3.922c-0.481 0.237-1.030-0.163-0.954-0.693l1.265-8.798c0.029-0.205-0.038-0.411-0.182-0.559l-6.195-6.374c-0.374-0.384-0.164-1.030 0.364-1.122l8.758-1.515c0.204-0.035 0.38-0.163 0.476-0.346l4.148-7.862z"></path>
</symbol>
<symbol id="icon-stars" viewBox="0 0 167 32">
      <path fill="var(--color1, #eea10c)" d="M14.309 5.204c.532-1.638 2.849-1.638 3.382 0l1.502 4.624a1.778 1.778 0 0 0 1.691 1.228h4.861c1.722 0 2.438 2.204 1.045 3.216l-3.933 2.858a1.778 1.778 0 0 0-.646 1.988l1.502 4.624c.532 1.638-1.342 3-2.736 1.988l-3.933-2.858a1.777 1.777 0 0 0-2.09 0l-3.933 2.858c-1.393 1.012-3.268-.35-2.736-1.988l1.502-4.624a1.779 1.779 0 0 0-.646-1.988l-3.933-2.858c-1.393-1.012-.677-3.216 1.045-3.216h4.862c.77 0 1.453-.496 1.691-1.228l1.502-4.624zM48.087 5.204c.532-1.638 2.849-1.638 3.382 0l1.502 4.624a1.778 1.778 0 0 0 1.691 1.228h4.861c1.722 0 2.438 2.204 1.045 3.216l-3.933 2.858a1.778 1.778 0 0 0-.646 1.988l1.502 4.624c.532 1.638-1.342 3-2.736 1.988l-3.933-2.858a1.777 1.777 0 0 0-2.09 0l-3.933 2.858c-1.393 1.012-3.268-.35-2.736-1.988l1.502-4.624a1.779 1.779 0 0 0-.646-1.988l-3.933-2.858c-1.393-1.012-.677-3.216 1.045-3.216h4.861c.77 0 1.453-.496 1.691-1.228l1.502-4.624zM81.865 5.204c.532-1.638 2.849-1.638 3.382 0l1.502 4.624a1.778 1.778 0 0 0 1.691 1.228h4.862c1.722 0 2.438 2.204 1.045 3.216l-3.933 2.858a1.778 1.778 0 0 0-.646 1.988l1.502 4.624c.532 1.638-1.342 3-2.736 1.988l-3.933-2.858a1.777 1.777 0 0 0-2.09 0l-3.933 2.858c-1.393 1.012-3.268-.35-2.736-1.988l1.502-4.624a1.779 1.779 0 0 0-.646-1.988l-3.933-2.858c-1.393-1.012-.677-3.216 1.045-3.216h4.862c.77 0 1.453-.496 1.691-1.228l1.502-4.624zM115.642 5.204c.532-1.638 2.849-1.638 3.382 0l1.502 4.624a1.778 1.778 0 0 0 1.691 1.228h4.862c1.722 0 2.438 2.204 1.045 3.216l-3.933 2.858a1.778 1.778 0 0 0-.646 1.988l1.502 4.624c.532 1.638-1.342 3-2.736 1.988l-3.933-2.858a1.777 1.777 0 0 0-2.09 0l-3.933 2.858c-1.393 1.012-3.268-.35-2.736-1.988l1.502-4.624a1.779 1.779 0 0 0-.646-1.988l-3.933-2.858c-1.393-1.012-.677-3.216 1.045-3.216h4.862c.77 0 1.453-.496 1.691-1.228l1.502-4.624z"/>
      <path fill="var(--color2, #f8f8f8)" d="M149.42 5.204c.532-1.638 2.849-1.638 3.382 0l1.502 4.624a1.778 1.778 0 0 0 1.691 1.228h4.862c1.722 0 2.438 2.204 1.045 3.216l-3.933 2.858a1.778 1.778 0 0 0-.646 1.988l1.502 4.624c.532 1.638-1.342 3-2.736 1.988l-3.933-2.858a1.777 1.777 0 0 0-2.09 0l-3.933 2.858c-1.393 1.012-3.268-.35-2.736-1.988l1.502-4.624a1.779 1.779 0 0 0-.646-1.988l-3.933-2.858c-1.393-1.012-.677-3.216 1.045-3.216h4.862c.77 0 1.453-.496 1.691-1.228l1.502-4.624z" opacity=".1"/>
    </symbol>
    <symbol id="icon-heart" viewBox="0 0 35 32">
      <path fill="none" stroke="var(--color2, #f8f8f8)" stroke-linecap="round" stroke-linejoin="round" stroke-width="3.2" d="M17.591 5.933c-2.932-3.428-7.822-4.35-11.496-1.211S1.904 13.11 4.789 16.823c2.399 3.087 9.659 9.597 12.038 11.705.266.236.399.354.555.4.136.04.284.04.419 0 .155-.046.288-.164.555-.4 2.379-2.107 9.639-8.618 12.038-11.705 2.885-3.713 2.431-8.994-1.306-12.101s-8.564-2.217-11.496 1.211z" opacity=".5"/>
    </symbol>
    <symbol id="icon-reset" viewBox="0 0 32 32">
      <path fill="none" stroke="var(--color3, #9bb537)" stroke-linecap="round" stroke-linejoin="round" stroke-width="3" d="M24 8 8 24M8 8l16 16"/>
    </symbol>
    <symbol id="icon-chevron-down" viewBox="0 0 48 32">
<path stroke-linejoin="round" stroke-linecap="round" stroke-miterlimit="4" stroke-width="8" d="M6 7l18 18 18-18"></path>
</symbol>
    <symbol id="icon-Vector" viewBox="0 0 32 32">
      <path d="M30.565 28.436 25 22.916a13.5 13.5 0 1 0-2.086 2.086l5.52 5.52a1.483 1.483 0 0 0 1.065.443 1.504 1.504 0 0 0 1.065-.443 1.503 1.503 0 0 0 0-2.085zM14.5 25.001a10.494 10.494 0 0 1-9.7-6.482A10.5 10.5 0 1 1 14.501 25z"/>
    </symbol>
</defs>
</svg>
